{
  "accessors": [
    {
      "bufferView": 2,
      "componentType": 5126,
      "count": 2697,
      "max": [
        0.2819710075855255,
        0.9117159843444824,
        13.478240966796875
      ],
      "min": [
        -3.0380420684814453,
        -1.5727779865264893,
        2.638711929321289
      ],
      "type": "VEC3"
    },
    {
      "bufferView": 2,
      "byteOffset": 32364,
      "componentType": 5126,
      "count": 2697,
      "max": [
        0.9995376467704773,
        0.9907451272010803,
        0.980563223361969
      ],
      "min": [
        -0.9996982216835022,
        -0.9956841468811035,
        -0.9892629981040955
      ],
      "type": "VEC3"
    },
    {
      "bufferView": 3,
      "componentType": 5126,
      "count": 2697,
      "max": [
        0.996479332447052,
        0.9990139603614807,
        0.998721718788147,
        1.0
      ],
      "min": [
        -0.9992681741714478,
        -0.9996502995491028,
        -0.967352569103241,
        -1.0
      ],
      "type": "VEC4"
    },
    {
      "bufferView": 1,
      "componentType": 5126,
      "count": 2697,
      "max": [
        0.9942839741706848,
        0.9933519959449768
      ],
      "min": [
        0.010110000148415565,
        0.0008880000095814466
      ],
      "type": "VEC2"
    },
    {
      "bufferView": 0,
      "componentType": 5125,
      "count": 6000,
      "type": "SCALAR"
    },
    {
      "bufferView": 2,
      "byteOffset": 64728,
      "componentType": 5126,
      "count": 2450,
      "max": [
        3.453819990158081,
        0.5098450183868408,
        11.539945602416992
      ],
      "min": [
        -1.629770040512085,
        -2.9767370223999023,
        2.554253101348877
      ],
      "type": "VEC3"
    },
    {
      "bufferView": 2,
      "byteOffset": 94128,
      "componentType": 5126,
      "count": 2450,
      "max": [
        0.9952295422554016,
        0.9991335272789001,
        0.977132260799408
      ],
      "min": [
        -0.9952295422554016,
        -0.9982437491416931,
        -0.977132260799408
      ],
      "type": "VEC3"
    },
    {
      "bufferView": 3,
      "byteOffset": 43152,
      "componentType": 5126,
      "count": 2450,
      "max": [
        0.9796154499053955,
        0.9941701292991638,
        0.9688093066215515,
        1.0
      ],
      "min": [
        -0.988915741443634,
        -0.9944397211074829,
        -0.9991468191146851,
        -1.0
      ],
      "type": "VEC4"
    },
    {
      "bufferView": 1,
      "byteOffset": 21576,
      "componentType": 5126,
      "count": 2450,
      "max": [
        0.9953619837760925,
        0.9971309900283813
      ],
      "min": [
        0.010156000033020973,
        0.007325999904423952
      ],
      "type": "VEC2"
    },
    {
      "bufferView": 0,
      "byteOffset": 24000,
      "componentType": 5125,
      "count": 6000,
      "type": "SCALAR"
    },
    {
      "bufferView": 2,
      "byteOffset": 123528,
      "componentType": 5126,
      "count": 1288,
      "max": [
        5.765519142150879,
        5.723485946655273,
        7.915852069854736
      ],
      "min": [
        -5.765522003173828,
        -5.723484039306641,
        0.627472996711731
      ],
      "type": "VEC3"
    },
    {
      "bufferView": 2,
      "byteOffset": 138984,
      "componentType": 5126,
      "count": 1288,
      "max": [
        1.0,
        1.0,
        1.0
      ],
      "min": [
        -1.0,
        -1.0,
        -1.0
      ],
      "type": "VEC3"
    },
    {
      "bufferView": 1,
      "byteOffset": 41176,
      "componentType": 5126,
      "count": 1288,
      "max": [
        0.65625,
        0.9988610148429871
      ],
      "min": [
        0.34375,
        0.0011390000581741333
      ],
      "type": "VEC2"
    },
    {
      "bufferView": 0,
      "byteOffset": 48000,
      "componentType": 5125,
      "count": 3408,
      "type": "SCALAR"
    }
  ],
  "asset": {
    "extras": {
      "author": "ErinRinArt (https://sketchfab.com/Enkairin)",
      "license": "CC-BY-4.0 (http://creativecommons.org/licenses/by/4.0/)",
      "source": "https://sketchfab.com/3d-models/aie-first-year-project-jewel-sword-and-shield-95f75defee3f478ab0f304b1389b9352",
      "title": "AIE First Year Project Jewel Sword And Shield"
    },
    "generator": "Sketchfab-15.5.0",
    "version": "2.0"
  },
  "bufferViews": [
    {
      "buffer": 0,
      "byteLength": 61632,
      "name": "floatBufferViews",
      "target": 34963
    },
    {
      "buffer": 0,
      "byteLength": 51480,
      "byteOffset": 61632,
      "byteStride": 8,
      "name": "floatBufferViews",
      "target": 34962
    },
    {
      "buffer": 0,
      "byteLength": 154440,
      "byteOffset": 113112,
      "byteStride": 12,
      "name": "floatBufferViews",
      "target": 34962
    },
    {
      "buffer": 0,
      "byteLength": 82352,
      "byteOffset": 267552,
      "byteStride": 16,
      "name": "floatBufferViews",
      "target": 34962
    }
  ],
  "buffers": [
    {
      "byteLength": 349904,
      "uri": "scene.bin"
    }
  ],
  "extensionsUsed": [
    "KHR_materials_emissive_strength",
    "KHR_materials_transmission",
    "KHR_materials_clearcoat",
    "KHR_materials_specular"
  ],
  "images": [
    {
      "uri": "textures/Sheild_baseColor.png"
    },
    {
      "uri": "textures/Sheild_metallicRoughness.png"
    },
    {
      "uri": "textures/Sheild_emissive.png"
    },
    {
      "uri": "textures/Sheild_normal.png"
    },
    {
      "uri": "textures/Sheild_transmission.png"
    },
    {
      "uri": "textures/Sword_baseColor.png"
    },
    {
      "uri": "textures/Sword_metallicRoughness.png"
    },
    {
      "uri": "textures/Sword_emissive.png"
    },
    {
      "uri": "textures/Sword_normal.png"
    },
    {
      "uri": "textures/Sword_transmission.png"
    }
  ],
  "materials": [
    {
      "alphaMode": "BLEND",
      "doubleSided": true,
      "emissiveFactor": [
        1.0,
        1.0,
        1.0
      ],
      "emissiveTexture": {
        "index": 2
      },
      "extensions": {
        "KHR_materials_emissive_strength": {
          "emissiveStrength": 10.0
        },
        "KHR_materials_transmission": {
          "transmissionFactor": 1.0,
          "transmissionTexture": {
            "index": 4
          }
        }
      },
      "name": "Sheild",
      "normalTexture": {
        "index": 3
      },
      "pbrMetallicRoughness": {
        "baseColorTexture": {
          "index": 0
        },
        "metallicRoughnessTexture": {
          "index": 1
        }
      }
    },
    {
      "alphaMode": "BLEND",
      "doubleSided": true,
      "emissiveFactor": [
        1.0,
        1.0,
        1.0
      ],
      "emissiveTexture": {
        "index": 7
      },
      "extensions": {
        "KHR_materials_emissive_strength": {
          "emissiveStrength": 10.0
        },
        "KHR_materials_transmission": {
          "transmissionFactor": 1.0,
          "transmissionTexture": {
            "index": 9
          }
        }
      },
      "name": "Sword",
      "normalTexture": {
        "index": 8
      },
      "pbrMetallicRoughness": {
        "baseColorTexture": {
          "index": 5
        },
        "metallicFactor": 0.48000146286160106,
        "metallicRoughnessTexture": {
          "index": 6
        }
      }
    },
    {
      "doubleSided": true,
      "extensions": {
        "KHR_materials_clearcoat": {
          "clearcoatFactor": 1.0,
          "clearcoatRoughnessFactor": 0.0
        },
        "KHR_materials_specular": {
          "specularColorFactor": [
            1.0,
            1.0,
            1.0
          ],
          "specularFactor": 0.0
        },
        "KHR_materials_transmission": {
          "transmissionFactor": 0.0
        }
      },
      "name": "initialShadingGroup",
      "pbrMetallicRoughness": {
        "metallicFactor": 0.0,
        "roughnessFactor": 0.0
      }
    }
  ],
  "meshes": [
    {
      "name": "Object_0",
      "primitives": [
        {
          "attributes": {
            "NORMAL": 1,
            "POSITION": 0,
            "TANGENT": 2,
            "TEXCOORD_0": 3
          },
          "indices": 4,
          "material": 1,
          "mode": 4
        }
      ]
    },
    {
      "name": "Object_1",
      "primitives": [
        {
          "attributes": {
            "NORMAL": 6,
            "POSITION": 5,
            "TANGENT": 7,
            "TEXCOORD_0": 8
          },
          "indices": 9,
          "material": 0,
          "mode": 4
        }
      ]
    },
    {
      "name": "Object_2",
      "primitives": [
        {
          "attributes": {
            "NORMAL": 11,
            "POSITION": 10,
            "TEXCOORD_0": 12
          },
          "indices": 13,
          "material": 2,
          "mode": 4
        }
      ]
    }
  ],
  "nodes": [
    {
      "children": [
        1
      ],
      "matrix": [
        1.0,
        0.0,
        0.0,
        0.0,
        0.0,
        2.220446049250313e-16,
        -1.0,
        0.0,
        0.0,
        1.0,
        2.220446049250313e-16,
        0.0,
        0.0,
        0.0,
        0.0,
        1.0
      ],
      "name": "Sketchfab_model"
    },
    {
      "children": [
        2,
        3,
        4
      ],
      "name": "FinalDiorama_JewelSwordAndSheild.obj.cleaner.materialmerger.gles"
    },
    {
      "mesh": 0,
      "name": "Object_2"
    },
    {
      "mesh": 1,
      "name": "Object_3"
    },
    {
      "mesh": 2,
      "name": "Object_4"
    }
  ],
  "samplers": [
    {
      "magFilter": 9729,
      "minFilter": 9987,
      "wrapS": 10497,
      "wrapT": 10497
    }
  ],
  "scene": 0,
  "scenes": [
    {
      "name": "Sketchfab_Scene",
      "nodes": [
        0
      ]
    }
  ],
  "textures": [
    {
      "sampler": 0,
      "source": 0
    },
    {
      "sampler": 0,
      "source": 1
    },
    {
      "sampler": 0,
      "source": 2
    },
    {
      "sampler": 0,
      "source": 3
    },
    {
      "sampler": 0,
      "source": 4
    },
    {
      "sampler": 0,
      "source": 5
    },
    {
      "sampler": 0,
      "source": 6
    },
    {
      "sampler": 0,
      "source": 7
    },
    {
      "sampler": 0,
      "source": 8
    },
    {
      "sampler": 0,
      "source": 9
    }
  ]
}
